<?xml version="1.0" standalone="no"?>
<!DOCTYPE svg PUBLIC "-//W3C//DTD SVG 20010904//EN"
 "http://www.w3.org/TR/2001/REC-SVG-20010904/DTD/svg10.dtd">
<svg version="1.0" xmlns="http://www.w3.org/2000/svg"
 width="500.000000pt" height="500.000000pt" viewBox="0 0 500.000000 500.000000"
 preserveAspectRatio="xMidYMid meet">
<metadata>
Created by potrace 1.16, written by Peter Selinger 2001-2019
</metadata>
<g transform="translate(0.000000,500.000000) scale(0.100000,-0.100000)"
fill="#000000" stroke="none">
<path d="M2290 3635 c-267 -50 -525 -205 -689 -413 -60 -76 -117 -162 -108
-162 2 0 24 30 49 68 79 119 198 238 318 319 103 69 274 141 386 162 104 20
247 30 304 22 51 -8 47 -9 -45 -10 -700 -9 -1222 -630 -1110 -1320 80 -490
477 -872 970 -934 55 -7 95 -16 89 -20 -32 -19 -283 32 -400 82 -220 94 -422
263 -527 444 -30 51 -47 65 -22 18 30 -59 137 -191 207 -255 446 -414 1142
-414 1586 -1 600 558 454 1542 -282 1900 -169 83 -273 107 -481 111 -119 2
-193 -1 -245 -11z m483 -89 c180 -47 347 -139 483 -268 455 -432 451 -1150 -7
-1583 -324 -306 -807 -382 -1206 -190 -163 78 -283 173 -394 312 -272 341
-309 833 -92 1208 167 289 433 477 765 541 114 21 329 12 451 -20z"/>
<path d="M2363 3486 c-352 -67 -650 -308 -787 -635 -15 -35 -25 -65 -23 -67 2
-2 16 26 31 63 97 237 322 449 566 535 64 23 160 38 160 26 0 -4 -23 -20 -51
-36 -248 -133 -395 -280 -495 -497 -201 -435 5 -976 466 -1224 77 -41 242
-101 279 -101 12 0 21 -4 21 -10 0 -6 -35 -10 -84 -10 -333 0 -652 205 -846
543 -34 60 -40 56 -9 -6 80 -155 253 -344 403 -436 97 -60 233 -115 341 -138
115 -24 300 -19 420 11 176 46 343 141 479 273 57 56 126 148 126 168 0 14
-61 54 -107 71 -56 19 -164 17 -221 -4 -27 -10 -80 -43 -118 -72 -38 -29 -92
-63 -120 -76 -68 -30 -187 -54 -266 -54 -315 1 -646 252 -722 547 -20 77 -20
238 -1 320 73 310 363 555 715 603 220 31 463 -37 611 -169 91 -81 152 -221
152 -347 0 -87 -32 -153 -85 -175 -53 -23 -178 -16 -296 16 -56 15 -100 30
-98 33 3 2 52 -2 110 -8 122 -15 240 -9 285 14 40 21 39 32 -5 39 -20 3 -90
33 -157 67 -67 33 -147 67 -177 75 -54 14 -210 20 -180 7 39 -17 61 -42 66
-74 5 -29 1 -38 -26 -65 l-31 -30 30 -49 c17 -26 31 -57 31 -69 0 -28 -35 -65
-63 -65 -62 -1 97 -60 188 -70 133 -16 251 29 360 135 88 85 109 142 110 295
0 109 -2 119 -32 182 -107 225 -300 384 -548 449 -103 27 -301 34 -402 15z
m-363 -419 c-112 -111 -199 -275 -226 -427 -17 -97 -17 -155 1 -265 8 -49 13
-91 11 -92 -2 -2 -13 29 -25 69 -42 144 -23 340 49 495 48 104 134 217 204
271 52 39 42 4 -14 -51z"/>
<path d="M3710 820 l0 -240 40 0 40 0 0 240 0 240 -40 0 -40 0 0 -240z"/>
<path d="M1760 811 l0 -231 45 0 45 0 0 65 0 65 59 0 59 0 43 -65 c44 -64 44
-64 92 -65 26 0 47 3 47 7 0 3 -21 36 -46 73 l-45 67 42 41 41 42 -4 69 c-3
57 -8 75 -28 96 -47 50 -76 59 -217 63 l-133 4 0 -231z m249 134 c31 -15 41
-33 41 -70 0 -61 -39 -85 -135 -85 l-65 0 0 85 0 85 65 0 c38 0 78 -6 94 -15z"/>
<path d="M2280 911 c-93 -49 -116 -180 -48 -267 58 -73 200 -85 280 -23 17 13
17 16 -5 43 -23 29 -24 29 -51 11 -52 -34 -139 -16 -166 35 -10 20 -8 20 125
20 l135 0 0 33 c0 46 -39 118 -79 144 -44 30 -140 32 -191 4z"/>
<path d="M2685 916 c-125 -56 -129 -248 -6 -313 74 -39 178 -27 225 25 22 26
17 43 -18 61 -24 13 -28 12 -49 -6 -37 -35 -97 -34 -132 2 -37 37 -35 106 4
146 18 17 40 29 56 29 30 0 81 -24 87 -41 5 -14 68 21 68 39 0 17 -36 51 -66
62 -36 14 -134 12 -169 -4z"/>
<path d="M2930 922 c0 -5 32 -82 71 -172 61 -138 70 -166 60 -186 -13 -29 -51
-40 -82 -24 -20 11 -25 10 -41 -10 -10 -12 -18 -29 -18 -36 0 -20 42 -34 100
-34 74 0 97 26 165 182 31 73 72 168 91 211 l33 77 -43 0 -44 0 -48 -115 c-27
-63 -52 -115 -55 -115 -3 0 -28 52 -54 115 l-47 115 -44 0 c-24 0 -44 -4 -44
-8z"/>
<path d="M3398 910 c-89 -47 -113 -181 -46 -265 61 -78 210 -86 277 -14 27 29
27 31 -9 52 -29 18 -31 18 -56 -2 -58 -45 -147 -15 -160 55 -18 95 82 160 154
100 l29 -25 32 20 c27 16 30 22 21 40 -32 58 -164 80 -242 39z"/>
<path d="M3890 755 l0 -175 45 0 45 0 0 175 0 175 -45 0 -45 0 0 -175z"/>
<path d="M4080 755 l0 -175 40 0 40 0 0 94 c0 110 12 151 51 171 40 21 66 19
94 -10 24 -23 25 -30 25 -140 l0 -115 45 0 45 0 0 120 c0 134 -11 173 -55 208
-34 27 -130 30 -175 7 -27 -14 -30 -14 -30 0 0 11 -11 15 -40 15 l-40 0 0
-175z"/>
<path d="M4560 908 c-56 -39 -75 -72 -75 -136 0 -74 26 -120 85 -149 52 -27
122 -30 164 -8 35 18 39 16 31 -18 -18 -72 -97 -84 -215 -33 -11 4 -21 -4 -34
-25 -18 -31 -18 -32 0 -46 46 -34 201 -46 252 -19 76 40 91 89 92 304 l0 152
-45 0 c-33 0 -45 -4 -45 -14 0 -13 -4 -13 -27 0 -45 23 -144 18 -183 -8z m187
-83 c80 -93 -68 -207 -149 -116 -30 34 -35 62 -15 101 28 56 122 65 164 15z"/>
<path d="M616 894 c-3 -9 -6 -41 -6 -73 0 -151 125 -255 288 -238 58 6 145 51
149 77 1 8 -11 25 -27 38 l-29 23 -30 -22 c-42 -31 -124 -36 -171 -12 -19 10
-45 34 -58 53 -21 31 -23 44 -19 103 l4 67 -47 0 c-34 0 -50 -4 -54 -16z"/>
<path d="M1084 861 c-15 -101 39 -207 129 -252 56 -29 140 -35 208 -16 111 33
169 114 169 237 l0 70 -55 0 -55 0 7 -27 c38 -138 -102 -251 -227 -184 -54 28
-82 84 -77 153 l5 56 -49 4 -49 3 -6 -44z"/>
<path d="M100 819 c0 -51 25 -112 63 -155 54 -61 104 -84 187 -84 54 0 74 5
117 30 29 17 60 42 70 56 16 25 16 27 -2 40 -27 20 -68 17 -99 -7 -34 -26 -93
-35 -139 -20 -52 18 -107 82 -107 126 0 35 0 35 -45 35 -39 0 -45 -3 -45 -21z"/>
</g>
</svg>
